<?xml version="1.0" encoding="UTF-8" standalone="no"?>
<!-- Created with Inkscape (http://www.inkscape.org/) -->

<svg
   width="202.50432mm"
   height="98.094048mm"
   viewBox="0 0 202.50432 98.094048"
   version="1.1"
   id="svg1"
   xml:space="preserve"
   inkscape:version="1.3.2 (091e20ef0f, 2023-11-25, custom)"
   sodipodi:docname="cfia-acia-logo.svg"
   inkscape:export-filename="cfia-acia-logo.pdf"
   inkscape:export-xdpi="96"
   inkscape:export-ydpi="96"
   xmlns:inkscape="http://www.inkscape.org/namespaces/inkscape"
   xmlns:sodipodi="http://sodipodi.sourceforge.net/DTD/sodipodi-0.dtd"
   xmlns="http://www.w3.org/2000/svg"
   xmlns:svg="http://www.w3.org/2000/svg"><sodipodi:namedview
     id="namedview1"
     pagecolor="#ffffff"
     bordercolor="#cccccc"
     borderopacity="1"
     inkscape:showpageshadow="0"
     inkscape:pageopacity="1"
     inkscape:pagecheckerboard="0"
     inkscape:deskcolor="#d1d1d1"
     inkscape:document-units="mm"
     inkscape:zoom="0.76880612"
     inkscape:cx="373.95644"
     inkscape:cy="279.00402"
     inkscape:window-width="1920"
     inkscape:window-height="1056"
     inkscape:window-x="1920"
     inkscape:window-y="0"
     inkscape:window-maximized="1"
     inkscape:current-layer="layer1" /><defs
     id="defs1" /><g
     inkscape:label="Layer 1"
     inkscape:groupmode="layer"
     id="layer1"
     transform="translate(-16.594906,-57.72735)"><g
       id="g15"><path
         style="fill:#ff0b0b;fill-opacity:1"
         d="m 31.321221,155.11007 c -0.77886,-2.02967 1.51847,-17.11225 3.3337,-21.88667 0.40887,-1.07539 0.11084,-1.46249 -1.26104,-1.63794 -5.39095,-0.68946 -6.60044,-1.6193 -5.33438,-4.10099 1.53261,-3.00417 -0.40667,-5.36524 -7.40833,-9.01962 -5.07048,-2.64643 -5.07383,-2.65496 -1.74297,-4.43469 7.17723,-3.83489 7.38193,-4.17614 5.68424,-9.47599 -1.04263,-3.25487 -1.21922,-3.12995 3.90929,-2.7656 8.6748,0.6163 13.05152,0.35179 13.05152,-0.78877 0,-1.242077 -8.43795,-7.721327 -19.9099,-15.288217 -1.71985,-1.13441 -1.64286,-1.18755 3.90261,-2.69359 5.81708,-1.57981 5.87655,-2.10618 1.61247,-14.27102 -2.20544,-6.29184 -2.85703,-6.01462 6.19274,-2.6348 10.15978,3.79438 9.9194,3.85979 12.43804,-3.38447 1.40606,-4.04417 1.34965,-4.03122 3.16879,-0.72761 6.17927,11.22176 11.7452,19.44688 13.15968,19.44688 1.10224,0 1.66057,-4.27778 1.66057,-12.72281 0,-5.19886 -0.0975,-5.04996 2.577664,-3.93628 5.54486,2.30833 5.43895,2.3583 10.25574,-4.83831 1.7268,-2.57996 2.0953,-2.76232 2.6732,-1.32291 1.26294,3.14566 4.84412,9.82386 5.81315,10.84038 1.27005,1.33228 1.76878,1.3957 4.37512,0.55627 2.31489,-0.74556 3.4093,0.4399 3.4093,3.69292 0,1.34312 0.36613,1.37933 4.23333,0.41871 10.379605,-2.57832 23.812505,-3.61352 23.812505,-1.83509 0,0.58535 -0.64314,0.68045 -4.60166,0.68045 -8.06838,0 -21.155865,2.50483 -28.206675,5.3985 -6.19158,2.54105 -8.29114,3.52903 -12.03854,5.66493 -2.1256,1.21153 -8.35154,5.25941 -8.59896,5.59074 -0.0728,0.0974 -1.08479,0.89858 -2.248964,1.78033 -18.26738,13.835827 -31.36545,38.215257 -32.56316,60.609767 -0.18645,3.48616 -0.72376,4.71506 -1.34908,3.0855 z"
         id="path15" /><text
         xml:space="preserve"
         style="font-weight:bold;font-size:35.2778px;line-height:1.25;font-family:sans-serif;-inkscape-font-specification:'sans-serif Bold';letter-spacing:0px;word-spacing:0px;stroke-width:0.264583"
         x="59.537659"
         y="125.56236"
         id="text15"><tspan
           sodipodi:role="line"
           id="tspan15"
           style="font-style:normal;font-variant:normal;font-weight:normal;font-stretch:normal;font-size:35.2778px;font-family:Ubuntu;-inkscape-font-specification:Ubuntu;stroke-width:0.264583"
           x="59.537659"
           y="125.56236">CFIA·ACIA</tspan></text></g></g></svg>
